1.8Hz3min_grf.mot
version=1
nRows=15
nColumns 19
inDegrees=yes
endheader
time	1_ground_force_vx	1_ground_force_vy	1_ground_force_vz	1_ground_force_px	1_ground_force_py	1_ground_force_pz	1_ground_torque_x	1_ground_torque_y	1_ground_torque_z	2_ground_force_vx	2_ground_force_vy	2_ground_force_vz	2_ground_force_px	2_ground_force_py	2_ground_force_pz	2_ground_torque_x	2_ground_torque_y	2_ground_torque_z
            2.502500	           -0.091360	           -0.541208	            0.089620	           -0.233013	            0.005581	           -0.255695	           -0.059707	            0.027357	            0.071568	            0.141941	           -0.368291	            0.139410	           -0.232311	            0.006130	           -0.833667	           -0.037537	           -0.009588	           -0.000018
            2.503000	            0.000620	           -0.902115	            0.179559	           -0.233013	            0.005581	           -0.255695	           -0.044849	            0.092512	           -0.018258	            0.281058	            0.001350	           -0.093976	           -0.232311	            0.006130	           -0.833667	            0.037332	            0.066305	            0.000220
            2.503500	            0.183911	           -1.082148	            0.132475	           -0.233013	            0.005581	           -0.255695	           -0.042941	            0.065188	           -0.085747	           -0.093741	           -0.000004	           -0.093816	           -0.232311	            0.006130	           -0.833667	           -0.075260	            0.028221	           -0.037567
            2.504000	           -0.137251	           -0.901552	            0.042332	           -0.233013	            0.005581	           -0.255695	           -0.020311	            0.046393	           -0.061977	           -0.046891	            0.000166	           -0.093836	           -0.232311	            0.006130	           -0.833667	           -0.037707	            0.037675	            0.000151
            2.504500	           -0.228400	           -0.722287	            0.272613	           -0.233013	            0.005581	           -0.255695	           -0.011469	           -0.055236	           -0.085149	            0.283634	           -0.734574	           -0.284316	           -0.232311	            0.006130	           -0.833667	           -0.150223	           -0.019381	           -0.018854
            2.505000	            0.091997	           -1.081773	            0.040991	           -0.233013	            0.005581	           -0.255695	           -0.057892	           -0.008647	           -0.127532	            0.234085	            0.002185	           -0.375524	           -0.232311	            0.006130	           -0.833667	           -0.187862	           -0.000611	           -0.018770
            2.505500	            0.137595	           -0.360505	           -0.001887	           -0.233013	            0.005581	           -0.255695	            0.000256	           -0.055397	            0.005639	            0.327846	            0.002021	           -0.234780	           -0.232311	            0.006130	           -0.833667	           -0.056424	            0.018702	            0.000091
            2.506000	            0.046529	           -1.262637	            0.177899	           -0.233013	            0.005581	           -0.255695	           -0.025914	           -0.018223	           -0.054409	            0.143791	           -0.919565	           -0.191057	           -0.232311	            0.006130	           -0.833667	           -0.094055	            0.037404	            0.019025
            2.506500	            0.183698	           -0.541155	            0.088938	           -0.233013	            0.005581	           -0.255695	           -0.022462	            0.037299	           -0.048340	           -0.044335	           -0.735591	           -0.331105	           -0.232311	            0.006130	           -0.833667	            0.037460	            0.028561	           -0.018765
            2.507000	            0.367037	           -0.360854	            0.089256	           -0.233013	            0.005581	           -0.255695	           -0.097897	            0.130205	           -0.133933	            0.141756	           -0.366785	           -0.282943	           -0.232311	            0.006130	           -0.833667	           -0.018862	            0.018905	           -0.018775
            2.507500	            0.092387	           -0.722028	            0.225960	           -0.233013	            0.005581	           -0.255695	            0.009320	            0.046511	           -0.052283	            0.282305	           -0.366277	           -0.283002	           -0.232311	            0.006130	           -0.833667	           -0.075303	            0.037741	           -0.056384
            2.508000	           -0.091716	           -1.081219	           -0.096122	           -0.233013	            0.005581	           -0.255695	           -0.033140	            0.028001	           -0.078861	            0.188003	           -0.182970	           -0.141521	           -0.232311	            0.006130	           -0.833667	           -0.131710	            0.056309	           -0.018592
            2.508500	            0.000359	           -0.721456	            0.088620	           -0.233013	            0.005581	           -0.255695	           -0.003439	           -0.046215	           -0.000164	            0.141111	           -0.182804	           -0.235357	           -0.232311	            0.006130	           -0.833667	           -0.169042	           -0.009996	           -0.018812
            2.509000	            0.274977	           -0.180016	           -0.047312	           -0.233013	            0.005581	           -0.255695	           -0.110491	            0.027753	            0.030926	            0.142379	           -0.550599	           -0.377456	           -0.232311	            0.006130	           -0.833667	           -0.150368	            0.018497	           -0.037569
            2.509500	           -0.045208	           -0.361523	            0.227847	           -0.233013	            0.005581	           -0.255695	           -0.046997	           -0.018670	            0.035691	            0.141776	           -0.366952	           -0.236014	           -0.232311	            0.006130	           -0.833667	           -0.112772	            0.018431	            0.018966
